<?xml version="1.0" encoding="utf-8"?>
<!-- Generator: Adobe Illustrator 21.1.0, SVG Export Plug-In . SVG Version: 6.00 Build 0)  -->
<svg version="1.1" id="Layer_1" xmlns="http://www.w3.org/2000/svg" xmlns:xlink="http://www.w3.org/1999/xlink" x="0px" y="0px"
	 viewBox="0 0 290.2 265.5" style="enable-background:new 0 0 290.2 265.5;" xml:space="preserve">
<style type="text/css">
	.st0{fill:#1071B9;}
</style>
<title>dwuspadowe</title>
<g id="Layer_2">
	<g id="Layer_1-2">
		<path class="st0" d="M290.2,265.5H0V131.2L145.1,0l145.1,131.2V265.5z M18,247.7h254.2V139.1l-127.1-115L18,139.1V247.7z"/>
		<rect x="9" y="128.2" class="st0" width="272.2" height="13.8"/>
		<path class="st0" d="M119,166.4H9c-3.9,0-7-3.1-7-6.9s3.1-6.9,7-6.9h110c3.9,0,7,3.1,7,6.9S122.9,166.4,119,166.4z"/>
		<path class="st0" d="M119,190.7H9c-3.9,0-7-3.1-7-6.9s3.1-6.9,7-6.9h110c3.9,0,7,3.1,7,6.9S122.9,190.7,119,190.7z"/>
		<path class="st0" d="M119,214.9H9c-3.9,0-7-3.1-7-6.9s3.1-6.9,7-6.9h110c3.9,0,7,3.1,7,6.9S122.9,214.9,119,214.9z"/>
		<path class="st0" d="M119,239.2H9c-3.9,0-7-3.1-7-6.9s3.1-6.9,7-6.9h110c3.9,0,7,3.1,7,6.9S122.9,239.2,119,239.2z"/>
		<path class="st0" d="M281.2,166.4h-110c-3.9,0-7-3.1-7-6.9s3.1-6.9,7-6.9h110c3.9,0,7,3.1,7,6.9S285,166.4,281.2,166.4z"/>
		<path class="st0" d="M281.2,190.7h-110c-3.9,0-7-3.1-7-6.9s3.1-6.9,7-6.9h110c3.9,0,7,3.1,7,6.9S285,190.7,281.2,190.7z"/>
		<path class="st0" d="M281.2,214.9h-110c-3.9,0-7-3.1-7-6.9s3.1-6.9,7-6.9h110c3.9,0,7,3.1,7,6.9S285,214.9,281.2,214.9z"/>
		<path class="st0" d="M281.2,239.2h-110c-3.9,0-7-3.1-7-6.9s3.1-6.9,7-6.9h110c3.9,0,7,3.1,7,6.9S285,239.2,281.2,239.2z"/>
	</g>
</g>
</svg>
