<?xml version="1.0" encoding="utf-8"?>
<!-- Generator: Adobe Illustrator 21.1.0, SVG Export Plug-In . SVG Version: 6.00 Build 0)  -->
<svg version="1.1" id="Layer_1" xmlns="http://www.w3.org/2000/svg" xmlns:xlink="http://www.w3.org/1999/xlink" x="0px" y="0px"
	 viewBox="0 0 250.1 265.5" style="enable-background:new 0 0 250.1 265.5;" xml:space="preserve">
<style type="text/css">
	.st0{fill:#1071B9;}
</style>
<title>jednospadowe</title>
<g id="Layer_2">
	<g id="Layer_1-2">
		<path class="st0" d="M250.1,265.5H0V0l250.1,131.3V265.5z M18,247.9h214.1V141.8L18,29.4V247.9z"/>
		<rect x="9" y="129.7" class="st0" width="232.1" height="13.7"/>
		<path class="st0" d="M88.5,167.4H9c-3.9,0-7-3.1-7-6.8c0-3.8,3.1-6.8,7-6.8h79.5c3.9,0,7,3.1,7,6.8
			C95.5,164.3,92.4,167.4,88.5,167.4z"/>
		<path class="st0" d="M88.5,191.4H9c-3.9,0-7-3.1-7-6.8c0-3.8,3.1-6.8,7-6.8h79.5c3.9,0,7,3.1,7,6.8
			C95.5,188.4,92.4,191.4,88.5,191.4z"/>
		<path class="st0" d="M88.5,215.5H9c-3.9,0-7-3.1-7-6.8c0-3.8,3.1-6.8,7-6.8h79.5c3.9,0,7,3.1,7,6.8
			C95.5,212.4,92.4,215.5,88.5,215.5z"/>
		<path class="st0" d="M88.5,239.5H9c-3.9,0-7-3.1-7-6.8c0-3.8,3.1-6.8,7-6.8h79.5c3.9,0,7,3.1,7,6.8
			C95.5,236.4,92.4,239.5,88.5,239.5z"/>
		<path class="st0" d="M241.1,167.4h-79.5c-3.9,0-7-3.1-7-6.8c0-3.8,3.1-6.8,7-6.8h79.5c3.9,0,7,3.1,7,6.8
			C248.1,164.3,245,167.4,241.1,167.4z"/>
		<path class="st0" d="M241.1,191.4h-79.5c-3.9,0-7-3.1-7-6.8c0-3.8,3.1-6.8,7-6.8h79.5c3.9,0,7,3.1,7,6.8
			C248.1,188.4,245,191.4,241.1,191.4z"/>
		<path class="st0" d="M241.1,215.5h-79.5c-3.9,0-7-3.1-7-6.8c0-3.8,3.1-6.8,7-6.8h79.5c3.9,0,7,3.1,7,6.8
			C248.1,212.4,245,215.5,241.1,215.5z"/>
		<path class="st0" d="M241.1,239.5h-79.5c-3.9,0-7-3.1-7-6.8c0-3.8,3.1-6.8,7-6.8h79.5c3.9,0,7,3.1,7,6.8
			C248.1,236.4,245,239.5,241.1,239.5z"/>
	</g>
</g>
</svg>
