<svg id="Layer_1" data-name="Layer 1" xmlns="http://www.w3.org/2000/svg" viewBox="0 0 319.05 269.41"><defs><style>.cls-1,.cls-4{fill:none;}.cls-1{stroke:#1071b9;stroke-linejoin:round;stroke-width:18px;}.cls-2{fill:#1071b9;}.cls-3{fill:#f60;}.cls-4{stroke:#fff;stroke-miterlimit:10;stroke-width:4px;stroke-dasharray:12;}</style></defs><title>materiały.svg</title><g id="Layer_2" data-name="Layer 2"><g id="Layer_1-2" data-name="Layer 1-2"><polygon class="cls-1" points="159.52 10.33 23.44 134.91 23.44 257.83 295.61 257.83 295.61 134.91 159.52 10.33"/><line class="cls-1" x1="295.61" y1="134.91" x2="23.44" y2="134.91"/><rect class="cls-2" y="246.25" width="46.88" height="23.17"/><rect class="cls-2" x="272.17" y="246.25" width="46.88" height="23.17"/><rect class="cls-2" y="123.33" width="46.88" height="23.17"/><rect class="cls-2" x="272.17" y="123.33" width="46.88" height="23.17"/><rect class="cls-2" y="185.5" width="46.88" height="23.17"/><rect class="cls-2" x="147.5" width="23.17" height="32.91"/><rect class="cls-2" x="272.17" y="185.5" width="46.88" height="23.17"/></g></g><polyline class="cls-3" points="159.09 269.42 318.17 269.42 318.17 123.33 170.67 0 159.09 0"/><polyline class="cls-4" points="170.67 0 318.17 123.33 318.17 269.42 159.09 269.42 159.09 0"/></svg>