<?xml version="1.0" encoding="utf-8"?>
<!-- Generator: Adobe Illustrator 21.1.0, SVG Export Plug-In . SVG Version: 6.00 Build 0)  -->
<svg version="1.1" id="Layer_1" xmlns="http://www.w3.org/2000/svg" xmlns:xlink="http://www.w3.org/1999/xlink" x="0px" y="0px"
	 viewBox="0 0 272.2 254.8" style="enable-background:new 0 0 272.2 254.8;" xml:space="preserve">
<style type="text/css">
	.st0{filter:url(#Adobe_OpacityMaskFilter);}
	.st1{fill:#FFFFFF;}
	.st2{mask:url(#SVGID_1_);}
	.st3{fill:#1071B9;}
	.st4{filter:url(#Adobe_OpacityMaskFilter_1_);}
	.st5{mask:url(#SVGID_2_);}
	.st6{fill:#094366;}
	.st7{stroke:#FFFFFF;stroke-width:2;stroke-miterlimit:10;}
	.st8{fill:none;stroke:#FFFFFF;stroke-width:2.7296;stroke-miterlimit:10;}
	.st9{fill:#1071B9;stroke:#FFFFFF;stroke-width:2.7296;stroke-miterlimit:10;}
</style>
<defs>
	<filter id="Adobe_OpacityMaskFilter" filterUnits="userSpaceOnUse" x="0" y="2.8" width="272.2" height="252">
		<feColorMatrix  type="matrix" values="1 0 0 0 0  0 1 0 0 0  0 0 1 0 0  0 0 0 1 0"/>
	</filter>
</defs>
<mask maskUnits="userSpaceOnUse" x="0" y="2.8" width="272.2" height="252" id="SVGID_1_">
	<g class="st0">
		<polygon class="st1" points="136.1,2.8 0,127.4 0,254.8 272.2,254.8 272.2,127.4 		"/>
	</g>
</mask>
<g class="st2">
	<polygon class="st3" points="136.1,2.8 0,127.4 0,254.8 272.2,254.8 272.2,127.4 	"/>
	<title>dwuspadowe</title>
</g>
<defs>
	<filter id="Adobe_OpacityMaskFilter_1_" filterUnits="userSpaceOnUse" x="0" y="0" width="272.2" height="254.8">
		<feColorMatrix  type="matrix" values="1 0 0 0 0  0 1 0 0 0  0 0 1 0 0  0 0 0 1 0"/>
	</filter>
</defs>
<mask maskUnits="userSpaceOnUse" x="0" y="0" width="272.2" height="254.8" id="SVGID_2_">
	<g class="st4">
		<polygon class="st1" points="136.1,2.8 0,127.4 0,254.8 272.2,254.8 272.2,127.4 		"/>
	</g>
</mask>
<g class="st5">
	<g>
		<rect x="14.5" y="0" class="st6" width="2.5" height="127.4"/>
		<rect y="0" class="st3" width="14.5" height="127.4"/>
		<rect x="31.5" y="0" class="st6" width="2.5" height="127.4"/>
		<rect x="17" y="0" class="st3" width="14.5" height="127.4"/>
		<rect x="48.5" y="0" class="st6" width="2.5" height="127.4"/>
		<rect x="34" y="0" class="st3" width="14.5" height="127.4"/>
		<rect x="65.5" y="0" class="st6" width="2.5" height="127.4"/>
		<rect x="51" y="0" class="st3" width="14.5" height="127.4"/>
		<rect x="82.5" y="0" class="st6" width="2.5" height="127.4"/>
		<rect x="68" y="0" class="st3" width="14.5" height="127.4"/>
		<rect x="99.6" y="0" class="st6" width="2.5" height="127.4"/>
		<rect x="85.1" y="0" class="st3" width="14.5" height="127.4"/>
		<rect x="116.6" y="0" class="st6" width="2.5" height="127.4"/>
		<rect x="102.1" y="0" class="st3" width="14.5" height="127.4"/>
		<rect x="133.6" y="0" class="st6" width="2.5" height="127.4"/>
		<rect x="119.1" y="0" class="st3" width="14.5" height="127.4"/>
		<rect x="150.6" y="0" class="st6" width="2.5" height="127.4"/>
		<rect x="136.1" y="0" class="st3" width="14.5" height="127.4"/>
		<rect x="167.6" y="0" class="st6" width="2.5" height="127.4"/>
		<rect x="153.1" y="0" class="st3" width="14.5" height="127.4"/>
		<rect x="184.6" y="0" class="st6" width="2.5" height="127.4"/>
		<rect x="170.1" y="0" class="st3" width="14.5" height="127.4"/>
		<rect x="201.6" y="0" class="st6" width="2.5" height="127.4"/>
		<rect x="187.1" y="0" class="st3" width="14.5" height="127.4"/>
		<rect x="218.6" y="0" class="st6" width="2.5" height="127.4"/>
		<rect x="204.1" y="0" class="st3" width="14.5" height="127.4"/>
		<rect x="235.6" y="0" class="st6" width="2.5" height="127.4"/>
		<rect x="221.1" y="0" class="st3" width="14.5" height="127.4"/>
		<rect x="252.7" y="0" class="st6" width="2.5" height="127.4"/>
		<rect x="238.1" y="0" class="st3" width="14.5" height="127.4"/>
		<rect x="269.7" y="0" class="st6" width="2.5" height="127.4"/>
		<rect x="255.2" y="0" class="st3" width="14.5" height="127.4"/>
	</g>
	<g>
		<rect x="14.5" y="127.4" class="st6" width="2.5" height="127.4"/>
		<rect y="127.4" class="st3" width="14.5" height="127.4"/>
		<rect x="31.5" y="127.4" class="st6" width="2.5" height="127.4"/>
		<rect x="17" y="127.4" class="st3" width="14.5" height="127.4"/>
		<rect x="48.5" y="127.4" class="st6" width="2.5" height="127.4"/>
		<rect x="34" y="127.4" class="st3" width="14.5" height="127.4"/>
		<rect x="65.5" y="127.4" class="st6" width="2.5" height="127.4"/>
		<rect x="51" y="127.4" class="st3" width="14.5" height="127.4"/>
		<rect x="82.5" y="127.4" class="st6" width="2.5" height="127.4"/>
		<rect x="68" y="127.4" class="st3" width="14.5" height="127.4"/>
		<rect x="99.6" y="127.4" class="st6" width="2.5" height="127.4"/>
		<rect x="85.1" y="127.4" class="st3" width="14.5" height="127.4"/>
		<rect x="116.6" y="127.4" class="st6" width="2.5" height="127.4"/>
		<rect x="102.1" y="127.4" class="st3" width="14.5" height="127.4"/>
		<rect x="133.6" y="127.4" class="st6" width="2.5" height="127.4"/>
		<rect x="119.1" y="127.4" class="st3" width="14.5" height="127.4"/>
		<rect x="150.6" y="127.4" class="st6" width="2.5" height="127.4"/>
		<rect x="136.1" y="127.4" class="st3" width="14.5" height="127.4"/>
		<rect x="167.6" y="127.4" class="st6" width="2.5" height="127.4"/>
		<rect x="153.1" y="127.4" class="st3" width="14.5" height="127.4"/>
		<rect x="184.6" y="127.4" class="st6" width="2.5" height="127.4"/>
		<rect x="170.1" y="127.4" class="st3" width="14.5" height="127.4"/>
		<rect x="201.6" y="127.4" class="st6" width="2.5" height="127.4"/>
		<rect x="187.1" y="127.4" class="st3" width="14.5" height="127.4"/>
		<rect x="218.6" y="127.4" class="st6" width="2.5" height="127.4"/>
		<rect x="204.1" y="127.4" class="st3" width="14.5" height="127.4"/>
		<rect x="235.6" y="127.4" class="st6" width="2.5" height="127.4"/>
		<rect x="221.1" y="127.4" class="st3" width="14.5" height="127.4"/>
		<rect x="252.7" y="127.4" class="st6" width="2.5" height="127.4"/>
		<rect x="238.1" y="127.4" class="st3" width="14.5" height="127.4"/>
		<rect x="269.7" y="127.4" class="st6" width="2.5" height="127.4"/>
		<rect x="255.2" y="127.4" class="st3" width="14.5" height="127.4"/>
	</g>
</g>
<line class="st7" x1="272.2" y1="127.4" x2="0" y2="127.4"/>
<line class="st8" x1="136.1" y1="254.8" x2="136.1" y2="195.3"/>
<rect x="100.8" y="195.3" class="st9" width="68" height="59.5"/>
<g id="Layer_1-2">
	<line class="st3" x1="-252.8" y1="210.8" x2="-362.8" y2="210.8"/>
</g>
</svg>
